<?xml version="1.0" encoding="UTF-8" standalone="no"?>
<!-- Created with Inkscape (http://www.inkscape.org/) -->

<svg
   width="2100"
   height="900"
   viewBox="0 0 555.62499 238.125"
   version="1.1"
   id="svg1"
   xml:space="preserve"
   inkscape:version="1.4.3 (unknown)"
   sodipodi:docname="oopsies-linux-kernel-6.18.12-20260317.svg"
   inkscape:export-filename="oopsies-linux-kernel-6.18.12-20260317.png"
   inkscape:export-xdpi="96"
   inkscape:export-ydpi="96"
   xmlns:inkscape="http://www.inkscape.org/namespaces/inkscape"
   xmlns:sodipodi="http://sodipodi.sourceforge.net/DTD/sodipodi-0.dtd"
   xmlns:xlink="http://www.w3.org/1999/xlink"
   xmlns="http://www.w3.org/2000/svg"
   xmlns:svg="http://www.w3.org/2000/svg"><sodipodi:namedview
     id="namedview1"
     pagecolor="#d7d1fb"
     bordercolor="#000000"
     borderopacity="0.25"
     inkscape:showpageshadow="2"
     inkscape:pageopacity="0.0"
     inkscape:pagecheckerboard="0"
     inkscape:deskcolor="#d1d1d1"
     inkscape:document-units="mm"
     inkscape:zoom="0.57857459"
     inkscape:cx="1665.2995"
     inkscape:cy="585.05853"
     inkscape:window-width="2560"
     inkscape:window-height="1494"
     inkscape:window-x="0"
     inkscape:window-y="0"
     inkscape:window-maximized="1"
     inkscape:current-layer="layer1"
     inkscape:export-bgcolor="#d7d1fbff" /><defs
     id="defs1"><pattern
       inkscape:collect="always"
       xlink:href="#pattern26"
       preserveAspectRatio="xMidYMid"
       id="pattern27"
       patternTransform="matrix(0.46984631,0.17101007,-0.17101007,0.46984631,1391.2865,1015.7755)"
       x="19"
       y="117"
       width="225.71196289"
       height="174.85338135" /><clipPath
       clipPathUnits="userSpaceOnUse"
       id="clipPath37"><path
         id="path38"
         style="fill:#5e2bc3;fill-opacity:0.418845;stroke-width:9.93042;stroke-linejoin:round;paint-order:fill markers stroke"
         d="m 88.268055,160.32535 -39.424358,-0.95436 0.125169,32.58579 37.036414,2.20649 0.884875,-1.16481 0.560089,-29.34454 z"
         sodipodi:nodetypes="ccccccc" /></clipPath><clipPath
       clipPathUnits="userSpaceOnUse"
       id="clipPath39"><path
         id="path39"
         style="fill:#5e2bc3;fill-opacity:0.418845;stroke-width:9.93042;stroke-linejoin:round;paint-order:fill markers stroke"
         d="m -10.602595,179.097 -39.424358,-0.95436 0.125169,32.58579 37.036414,2.20649 0.884875,-1.16481 0.560089,-29.34454 z"
         sodipodi:nodetypes="ccccccc" /></clipPath><clipPath
       clipPathUnits="userSpaceOnUse"
       id="clipPath40"><path
         id="path40"
         style="fill:#5e2bc3;fill-opacity:0.418845;stroke-width:9.93042;stroke-linejoin:round;paint-order:fill markers stroke"
         d="m 83.879279,191.4861 -39.424356,-0.95436 0.125169,32.58579 37.036415,2.20648 0.884875,-1.1648 0.560088,-29.34454 z"
         sodipodi:nodetypes="ccccccc" /></clipPath><style
       id="style1">.cls-1{fill:#172a88;}.cls-2{fill:#f39800;}</style><pattern
       patternUnits="userSpaceOnUse"
       width="141.06975"
       height="109.28336"
       patternTransform="translate(1543.3845,1103.9233)"
       preserveAspectRatio="xMidYMid"
       id="pattern24"
       inkscape:label="pattern24"><text
         xml:space="preserve"
         style="font-style:normal;font-variant:normal;font-weight:bold;font-stretch:normal;font-size:141.193px;line-height:1.1;font-family:'寒蝉圆黑体';-inkscape-font-specification:'寒蝉圆黑体 Bold';letter-spacing:1.05895px;writing-mode:lr-tb;direction:ltr;fill:#151d23;fill-opacity:1;stroke:none;stroke-width:20.0116;stroke-linecap:square;stroke-linejoin:round;stroke-dasharray:none;stroke-opacity:1;paint-order:fill markers stroke"
         x="-13.272118"
         y="81.044662"
         id="text20"><tspan
           sodipodi:role="line"
           id="tspan20"
           style="stroke-width:20.0117"
           x="-13.272118"
           y="81.044662">¡<tspan
   style="font-style:normal;font-variant:normal;font-weight:900;font-stretch:normal;font-size:106.667px;font-family:'寒蝉圆黑体';-inkscape-font-specification:'寒蝉圆黑体 Heavy';stroke-width:20.0117"
   id="tspan21">_</tspan>¡</tspan></text></pattern><pattern
       patternUnits="userSpaceOnUse"
       width="141.06997"
       height="109.28336"
       patternTransform="translate(1391.2865,1015.7755)"
       preserveAspectRatio="xMidYMid"
       id="pattern26"
       inkscape:label="pattern26"><text
         xml:space="preserve"
         style="font-style:normal;font-variant:normal;font-weight:bold;font-stretch:normal;font-size:141.193px;line-height:1.1;font-family:'寒蝉圆黑体';-inkscape-font-specification:'寒蝉圆黑体 Bold';letter-spacing:1.05895px;writing-mode:lr-tb;direction:ltr;fill:#ffffff;fill-opacity:1;stroke:none;stroke-width:20.0116;stroke-linecap:square;stroke-linejoin:round;stroke-dasharray:none;stroke-opacity:1;paint-order:fill markers stroke"
         x="-13.272118"
         y="81.044662"
         id="text26"><tspan
           sodipodi:role="line"
           id="tspan26"
           style="fill:#ffffff;fill-opacity:1;stroke-width:20.0117"
           x="-13.272118"
           y="81.044662">¡<tspan
   style="font-style:normal;font-variant:normal;font-weight:900;font-stretch:normal;font-size:106.667px;font-family:'寒蝉圆黑体';-inkscape-font-specification:'寒蝉圆黑体 Heavy';fill:#ffffff;fill-opacity:1;stroke-width:20.0117"
   id="tspan25">_</tspan>¡</tspan></text></pattern></defs><g
     inkscape:label="图层 1"
     inkscape:groupmode="layer"
     id="layer1"><rect
       style="fill:url(#pattern27);stroke:none;stroke-width:4.99999;stroke-linecap:round;stroke-linejoin:round;paint-order:stroke markers fill;opacity:0.25"
       id="rect3"
       width="555.625"
       height="238.125"
       x="-3.1974423e-14"
       y="-3.4106049e-14" /><text
       xml:space="preserve"
       style="font-weight:bold;font-size:10.7597px;line-height:1.1;font-family:'寒蝉圆黑体';-inkscape-font-specification:'寒蝉圆黑体 Bold';letter-spacing:0.264583px;writing-mode:lr-tb;direction:ltr;fill:#3c1eec;fill-opacity:1;stroke-width:1.057;stroke-linecap:square;stroke-linejoin:round;paint-order:fill markers stroke"
       x="468.14838"
       y="113.11954"
       id="text1"><tspan
         sodipodi:role="line"
         id="tspan1"
         style="stroke-width:1.057"
         x="468.14838"
         y="113.11954" /></text><text
       xml:space="preserve"
       style="font-style:normal;font-variant:normal;font-weight:900;font-stretch:normal;font-size:37.3573px;line-height:1.1;font-family:'寒蝉圆黑体';-inkscape-font-specification:'寒蝉圆黑体 Heavy';text-align:start;letter-spacing:0px;writing-mode:lr-tb;direction:ltr;text-anchor:start;fill:#151d23;fill-opacity:1;stroke:#ff0000;stroke-width:5.29474;stroke-linecap:square;stroke-linejoin:round;stroke-dasharray:none;stroke-opacity:1;paint-order:fill markers stroke"
       x="311.47757"
       y="100.57122"
       id="text17"><tspan
         sodipodi:role="line"
         id="tspan17"
         style="font-style:normal;font-variant:normal;font-weight:bold;font-stretch:normal;font-family:'寒蝉圆黑体';-inkscape-font-specification:'寒蝉圆黑体 Bold';letter-spacing:0px;fill:#151d23;fill-opacity:1;stroke:none;stroke-width:5.29475"
         x="311.47757"
         y="100.57122">私密吗喽！</tspan><tspan
         sodipodi:role="line"
         style="font-style:normal;font-variant:normal;font-weight:bold;font-stretch:normal;font-family:'寒蝉圆黑体';-inkscape-font-specification:'寒蝉圆黑体 Bold';letter-spacing:0px;fill:#151d23;fill-opacity:1;stroke:none;stroke-width:5.29475"
         x="311.47757"
         y="141.66425"
         id="tspan18">咱<tspan
   style="font-style:normal;font-variant:normal;font-weight:900;font-stretch:normal;font-family:'寒蝉圆黑体';-inkscape-font-specification:'寒蝉圆黑体 Heavy';letter-spacing:2.24896px;fill:#e85049;fill-opacity:1;stroke-width:5.29475"
   id="tspan23">[又]</tspan>搞砸了</tspan></text><rect
       style="stroke:none;fill:none"
       transform="scale(0.26458333)"
       width="141.06975"
       height="109.28336"
       x="1543.3845"
       y="1103.9233"
       id="rect24" /><g
       id="g27"><g
         id="g23"
         transform="translate(10.583333)"><path
           style="fill:#77a2d0;fill-opacity:0.5;stroke:none;stroke-width:1.42454;stroke-linecap:round;stroke-linejoin:round;stroke-dasharray:none;stroke-opacity:1;paint-order:stroke fill markers"
           d="m 118.03328,86.813117 c 2.01137,-0.335229 93.52853,-1.005681 109.61946,6.704555 16.09092,7.710238 -4.35796,37.545508 -4.35796,37.545508 0,0 -103.92059,-3.35228 -114.31265,-10.72729 -10.392055,-7.37501 9.05115,-33.522773 9.05115,-33.522773 z"
           id="path146" /><path
           style="baseline-shift:baseline;display:inline;overflow:visible;fill:#a6abbb;fill-opacity:1;stroke:#000000;stroke-width:4.39793;stroke-linecap:round;stroke-linejoin:round;stroke-dasharray:none;stroke-opacity:1;paint-order:fill markers stroke;enable-background:accumulate;stop-color:#000000"
           d="M -65.318997,218.13382 58.785121,153.96734 318.04153,183.5831 255.44614,261.19255 Z"
           id="path22"
           sodipodi:nodetypes="ccccc" /><path
           style="fill:none;fill-opacity:0.441193;stroke:#536279;stroke-width:4.3613;stroke-linecap:butt;stroke-linejoin:round;stroke-dasharray:none;stroke-opacity:1;paint-order:fill markers stroke"
           d="m 253.69145,173.36667 c 23.23658,34.55205 -24.32832,67.15211 -42.05419,66.84545"
           id="path25-5"
           sodipodi:nodetypes="cc" /><path
           id="rect1-6-79"
           style="fill:#52637a;fill-opacity:1;stroke-width:4.3613;stroke-linecap:round;stroke-linejoin:round;paint-order:fill markers stroke"
           d="m 243.93763,179.96835 10.85353,-8.85352 2.97417,28.03163 c -12.37839,15.93591 -28.42341,18.03826 -41.75039,23.22338 l 28.24043,-28.57768 z"
           sodipodi:nodetypes="cccccc" /><path
           id="rect1-4-8"
           style="fill:#b8b5a8;fill-opacity:1;stroke:#000000;stroke-width:4.3613;stroke-linecap:round;stroke-linejoin:round;stroke-opacity:1;paint-order:fill markers stroke"
           d="m 257.84183,84.477174 c 0,0 17.4802,13.021217 18.36123,19.552766 0.91937,6.81594 -2.09706,39.29801 -2.09706,39.29801 l -20.85147,19.87093 z"
           sodipodi:nodetypes="csccc" /><path
           style="baseline-shift:baseline;display:inline;overflow:visible;vector-effect:none;fill:#e5e3db;stroke-width:1.83152;stroke-linecap:round;stroke-linejoin:round;paint-order:fill markers stroke;enable-background:accumulate;stop-color:#000000"
           d="m 133.0341,151.6646 109.154,28.72507 c 1.86126,1.54847 2.68576,3.26525 2.68036,5.49945 0,0 0.0635,4.1993 -0.0153,6.09709 -0.085,2.06368 -2.19495,3.75687 -3.58036,5.47113 -6.32107,7.82153 -21.63895,20.35444 -21.63895,20.35444 -2.14733,1.98919 -5.23924,3.20945 -9.7331,2.7712 -12.15546,-1.18541 -59.39537,-9.26027 -87.94764,-19.76629 z"
           id="path18" /><path
           id="rect1-6-65"
           style="fill:#b8b5a8;fill-opacity:1;stroke-width:1.67212;stroke-linecap:round;stroke-linejoin:round;paint-order:fill markers stroke"
           d="m 134.20134,177.67937 c 35.48008,8.99625 69.05241,8.18712 100.2352,7.40554 3.61193,-1.92815 6.57896,-3.93373 10.14459,-4.66692 l 0.61881,13.73772 -30.94666,27.0476 -0.57295,-11.68848 21.97369,-18.63682 c -14.92638,6.56574 -29.78042,12.22683 -44.16174,11.97937 l -0.11746,-11.25055 c -17.59865,-1.05985 -36.68882,-4.40308 -50.70694,-7.17771 -5.22802,0.60009 -11.69625,1.48652 -14.82097,3.24991 z"
           sodipodi:nodetypes="cccccccccccc" /><path
           style="baseline-shift:baseline;display:inline;overflow:visible;vector-effect:none;stroke-width:1.83152;stroke-linecap:round;stroke-linejoin:round;paint-order:fill markers stroke;enable-background:accumulate;stop-color:#000000"
           d="m 133.77466,148.85254 a 2.9078166,2.9078166 0 0 0 -3.57716,2.17134 l -11.07851,49.15394 a 2.9078166,2.9078166 0 0 0 1.83151,3.3661 c 29.07455,10.69816 75.96668,18.69345 88.66739,19.93202 5.14097,0.50135 9.26106,-0.99874 11.99425,-3.53068 0.24293,-0.19681 15.16589,-12.30331 21.92091,-20.66174 0.53328,-0.65989 1.42242,-1.52153 2.29656,-2.6221 0.87352,-1.09982 1.84513,-2.56809 1.92806,-4.55371 v -0.004 c 0.0871,-2.12157 0.0191,-6.13686 0.0191,-6.20641 0.006,-2.9531 -1.37843,-5.79032 -3.72743,-7.74456 a 2.9078166,2.9078166 0 0 0 -1.11964,-0.57593 z m 1.43446,6.38882 105.4479,27.75171 c 0.9744,0.90332 1.30888,1.56237 1.30566,2.89035 a 2.9078166,2.9078166 0 0 0 0,0.05 c 0,0 0.0541,4.27777 -0.0153,5.93455 -0.004,0.0761 -0.12399,0.48634 -0.6725,1.17691 -0.54849,0.69051 -1.41226,1.53187 -2.26435,2.58627 -5.83212,7.21649 -21.21978,19.93201 -21.21978,19.93201 a 2.9078166,2.9078166 0 0 0 -0.13244,0.11449 c -1.56143,1.44644 -3.62957,2.38551 -7.47628,2.01037 -11.31477,-1.1034 -56.54884,-8.92126 -84.80046,-18.86243 z"
           id="path19" /><path
           style="baseline-shift:baseline;display:inline;overflow:visible;vector-effect:none;stroke-width:1.83152;stroke-linecap:round;stroke-linejoin:round;paint-order:fill markers stroke;enable-background:accumulate;stop-color:#000000"
           d="m 234.22168,188.50194 -18.50113,16.75545 c -2.13281,1.93134 -4.78068,3.19462 -8.96798,2.76871 -26.75207,-2.72078 -54.46093,-7.75287 -80.37908,-17.92518 a 2.9075258,2.9075258 0 0 0 -3.76675,1.64549 2.9075258,2.9075258 0 0 0 1.64192,3.77032 c 26.62205,10.44861 54.85043,15.54088 81.91726,18.29368 5.72578,0.58233 10.33162,-1.41209 13.45731,-4.24253 l 18.50113,-16.75547 a 2.9075258,2.9075258 0 0 0 0.20385,-4.1066 2.9075258,2.9075258 0 0 0 -4.10657,-0.20385 z"
           id="path9" /><path
           style="baseline-shift:baseline;display:inline;overflow:visible;vector-effect:none;fill:#e5e3db;stroke-width:1.83152;stroke-linecap:round;stroke-linejoin:round;paint-order:fill markers stroke;enable-background:accumulate;stop-color:#000000"
           d="m 121.28269,42.583713 c 46.80493,-7.922089 83.1269,-2.087976 125.17929,10.412268 8.54177,4.977913 20.40782,15.60765 20.61965,23.698647 0.30833,11.775666 -2.99891,75.822152 -6.91764,86.589392 -2.82231,7.75455 -14.91972,15.94902 -23.7424,20.38016 -45.88444,5.23961 -86.0885,-2.03125 -127.03863,-11.52788 z"
           id="path20" /><path
           id="rect1-6-0"
           style="fill:#b8b5a8;fill-opacity:1;stroke-width:4.3613;stroke-linecap:round;stroke-linejoin:round;paint-order:fill markers stroke"
           d="m 244.56767,53.390304 c 9.1264,3.340888 17.27638,9.471497 23.41478,21.349533 l -5.13673,82.186723 c -3.50799,14.46256 -17.19975,20.6811 -29.29909,28.18876 10.24323,-41.65006 14.47112,-85.367884 11.02104,-131.725016 z"
           sodipodi:nodetypes="ccccc" /><path
           style="baseline-shift:baseline;display:inline;overflow:visible;vector-effect:none;stroke-width:1.83152;stroke-linecap:round;stroke-linejoin:round;paint-order:fill markers stroke;enable-background:accumulate;stop-color:#000000"
           d="M 170.45857,36.207363 C 154.80786,35.6741 138.52689,36.7156 120.79669,39.716573 a 2.9078166,2.9078166 0 0 0 -2.41102,2.600604 L 106.488,171.87164 a 2.9078166,2.9078166 0 0 0 2.2393,3.09783 c 41.03996,9.51744 81.64755,16.87859 128.02344,11.58287 a 2.9078166,2.9078166 0 0 0 0.97656,-0.28974 c 4.57743,-2.29898 9.93749,-5.5295 14.62707,-9.26845 4.68959,-3.73895 8.78673,-7.89427 10.54191,-12.71685 1.25155,-3.43881 2.06954,-9.31845 2.93329,-17.08815 0.8638,-7.7697 1.63774,-17.18271 2.27864,-26.6249 1.28186,-18.88438 2.0465,-37.647943 1.8816,-43.945565 -0.14223,-5.432104 -3.6891,-10.403256 -7.98066,-14.938271 -4.29158,-4.53502 -9.54062,-8.549185 -14.08333,-11.196553 A 2.9078166,2.9078166 0 0 0 247.28908,50.20842 C 220.88043,42.358336 196.54311,37.096142 170.45857,36.207363 Z m -0.17526,5.787867 c 25.3161,0.85444 48.96524,5.9763 74.96678,13.686262 3.95718,2.340436 8.77882,6.025982 12.53442,9.994622 3.82982,4.047077 6.31922,8.437497 6.38883,11.096391 0.14342,5.478042 -0.5929,24.623665 -1.86729,43.398255 -0.63719,9.3873 -1.40479,18.7392 -2.25364,26.3745 -0.8488,7.63529 -1.91422,13.79832 -2.62206,15.74313 -1.06708,2.93199 -4.42931,6.75447 -8.69966,10.15917 -4.15148,3.30993 -9.06358,6.25399 -13.23553,8.37774 -44.2228,4.94821 -83.16833,-1.84581 -122.97961,-10.99265 L 123.96608,45.150295 c 16.4987,-2.655721 31.712,-3.648002 46.31723,-3.155065 z"
           id="path21" /><path
           style="baseline-shift:baseline;display:inline;overflow:visible;vector-effect:none;stroke-width:1.83152;stroke-linecap:round;stroke-linejoin:round;paint-order:fill markers stroke;enable-background:accumulate;stop-color:#000000"
           d="m 245.13561,58.840136 a 2.9075258,2.9075258 0 0 0 -2.75799,3.05133 c 2.03216,40.214364 -1.77849,76.475054 -8.58521,112.884834 a 2.9075258,2.9075258 0 0 0 2.32514,3.39116 2.9075258,2.9075258 0 0 0 3.39118,-2.32158 c 6.86296,-36.71056 10.73422,-73.49096 8.67464,-114.247743 a 2.9075258,2.9075258 0 0 0 -3.04776,-2.758001 z"
           id="path10" /><path
           style="baseline-shift:baseline;display:inline;overflow:visible;vector-effect:none;stroke-width:1.83152;stroke-linecap:round;stroke-linejoin:round;paint-order:fill markers stroke;enable-background:accumulate;stop-color:#000000"
           d="m 140.41032,176.12132 a 2.9075258,2.9075258 0 0 0 -2.87246,2.94401 c 0.0501,3.93403 0.59125,7.75054 1.13754,11.45412 a 2.9078166,2.9078166 0 0 0 2.01036,2.35019 c 16.95591,5.29125 34.43588,8.98246 52.24461,10.19495 a 2.9078166,2.9078166 0 0 0 1.75282,-0.44359 c 7.42886,-4.70005 14.35248,-8.54076 19.07349,-14.69142 a 2.9075258,2.9075258 0 0 0 -0.53658,-4.07441 2.9075258,2.9075258 0 0 0 -4.07798,0.53301 c -3.55825,4.63579 -9.56469,8.26336 -16.69467,12.75619 -16.34098,-1.19101 -32.45946,-4.55858 -48.20955,-9.35433 -0.42094,-2.99346 -0.84745,-5.96005 -0.88357,-8.79625 a 2.9075258,2.9075258 0 0 0 -2.94401,-2.87247 z"
           id="path11" /><path
           style="baseline-shift:baseline;display:inline;overflow:visible;vector-effect:none;stroke-width:1.83152;stroke-linecap:round;stroke-linejoin:round;paint-order:fill markers stroke;enable-background:accumulate;stop-color:#000000"
           d="m 191.27055,182.73193 a 2.9075258,2.9075258 0 0 0 -2.87603,2.93686 l 0.0716,7.50848 a 2.9075258,2.9075258 0 0 0 2.93688,2.87965 2.9075258,2.9075258 0 0 0 2.87962,-2.93688 l -0.0752,-7.5085 a 2.9075258,2.9075258 0 0 0 -2.93687,-2.87961 z"
           id="path12" /><path
           style="fill:#3c1eec;fill-opacity:1;stroke:none;stroke-width:3.95848;stroke-linecap:round;stroke-linejoin:round;stroke-dasharray:none;stroke-opacity:1;paint-order:stroke fill markers"
           d="m 136.81502,58.949957 c 0,0 80.39287,-0.886045 89.36371,10.154967 6.60074,8.123976 -7.61624,94.948946 -7.61624,94.948946 0,0 -85.30171,-5.07749 -89.36369,-8.63173 -4.06199,-3.55423 -23.35643,-77.177744 -23.35643,-77.177744 z"
           id="path13"
           sodipodi:nodetypes="cscscc" /><path
           style="baseline-shift:baseline;display:inline;overflow:visible;vector-effect:none;stroke-width:1.83152;stroke-linecap:round;stroke-linejoin:round;paint-order:fill markers stroke;enable-background:accumulate;stop-color:#000000"
           d="m 150.31552,55.924738 c -8.32426,-0.05662 -16.59977,0.06425 -24.84705,0.228942 -1.33947,0.02848 -2.44965,1.046789 -2.59345,2.378821 L 112.66577,153.2775 c -0.15846,1.46277 0.89828,2.7773 2.36094,2.93686 33.91484,3.71375 68.24713,11.5163 103.87038,10.31656 1.24851,-0.0427 2.29986,-0.94687 2.52905,-2.17492 6.00409,-32.14997 9.03713,-64.10173 7.87694,-97.034386 -0.0409,-1.177128 -0.84949,-2.18788 -1.98894,-2.486135 -26.59278,-6.97389 -52.02586,-8.740833 -76.99862,-8.910741 z m -0.0429,5.333568 c 24.10189,0.165618 48.43089,1.93946 73.71122,8.331235 0.92392,30.990569 -1.88934,61.162889 -7.43691,91.564889 -33.08182,0.76692 -65.58708,-6.11526 -98.30073,-9.88373 l 9.67268,-89.808494 c 7.44641,-0.139813 14.89037,-0.255191 22.35374,-0.203903 z"
           id="rect1-4-5"
           sodipodi:nodetypes="sccccccccssccccss" /><path
           style="baseline-shift:baseline;display:inline;overflow:visible;vector-effect:none;fill:#283037;stroke-width:1.83152;stroke-linecap:round;stroke-linejoin:round;paint-order:fill markers stroke;enable-background:accumulate;stop-color:#000000"
           d="m 186.51377,224.55587 c 17.33944,1.47011 26.18751,9.4167 24.08999,21.78796 h -17.61097 z"
           id="path28" /><path
           id="rect1-6-1"
           style="fill:#1f262d;fill-opacity:1;stroke-width:0.518987;stroke-linecap:round;stroke-linejoin:round;paint-order:fill markers stroke"
           d="m 207.44369,233.8626 c 4.52933,2.81218 4.32494,7.62711 4.22231,12.39896 l -11.83647,0.0687 c 2.73436,-2.9781 5.41977,-6.24975 7.61416,-12.46758 z"
           sodipodi:nodetypes="cccc" /><path
           style="baseline-shift:baseline;display:inline;overflow:visible;vector-effect:none;stroke-width:1.83152;stroke-linecap:round;stroke-linejoin:round;paint-order:fill markers stroke;enable-background:accumulate;stop-color:#000000"
           d="m 186.75974,221.65872 a 2.9078166,2.9078166 0 0 0 -3.03343,3.72743 l 6.47825,21.78499 a 2.9078166,2.9078166 0 0 0 2.78663,2.08191 h 17.61398 a 2.9078166,2.9078166 0 0 0 2.86533,-2.42178 c 1.17854,-6.95107 -0.87147,-13.29338 -5.6734,-17.62829 -4.80193,-4.3349 -11.96969,-6.77544 -21.03736,-7.54426 z m 3.90987,6.6786 c 5.7845,1.04523 10.50638,2.72606 13.22838,5.18332 2.84214,2.56572 3.8634,5.86261 3.73815,9.91592 h -12.47361 z"
           id="path29" /><path
           style="fill:none;fill-opacity:1;stroke:#000000;stroke-width:3.8767;stroke-linecap:round;stroke-linejoin:round;stroke-dasharray:none;stroke-opacity:1;paint-order:fill markers stroke"
           d="m 209.58549,239.21685 c -2.19428,-5.43968 -12.31425,-5.93794 -19.12859,-4.08798"
           id="path7"
           sodipodi:nodetypes="cc" /><path
           style="fill:none;fill-opacity:1;stroke:#000000;stroke-width:3.8767;stroke-linecap:round;stroke-linejoin:round;stroke-dasharray:none;stroke-opacity:1;paint-order:fill markers stroke"
           d="m 197.09021,234.66609 c 1.6803,3.74161 3.40672,7.85966 3.39378,12.03249"
           id="path8"
           sodipodi:nodetypes="cc" /><path
           style="baseline-shift:baseline;display:inline;overflow:visible;vector-effect:none;fill:#3b484f;stroke-width:1.83152;stroke-linecap:round;stroke-linejoin:round;paint-order:fill markers stroke;enable-background:accumulate;stop-color:#000000"
           d="m 129.07486,217.79151 c 7.70535,-0.85903 15.41069,-2.18377 23.11605,-1.52629 l 6.43181,5.14306 c 3.21417,-1.93858 7.09366,-1.56272 10.35801,-0.30885 25.76359,-3.83765 24.5296,16.36907 22.21582,25.2444 h -70.38303 z"
           id="path14" /><path
           style="fill:none;fill-opacity:0.441193;stroke:#3472c5;stroke-width:4.3613;stroke-linecap:round;stroke-linejoin:round;stroke-dasharray:none;stroke-opacity:1;paint-order:fill markers stroke"
           d="m 149.41663,217.71492 c 0,0 8.73305,6.38134 9.22991,12.1912 0.1185,1.38594 -5.93226,8.39796 -5.93226,8.39796 l -3.00436,6.84017 -7.54017,-1.08089 3.72346,-7.29069 6.47841,0.46964 2.28212,1.95388 8.70736,3.36952 1.97184,3.64032"
           id="path24"
           sodipodi:nodetypes="cscccccccc" /><path
           id="rect1-6-86"
           style="fill:#fafafa;fill-opacity:1;stroke-width:4.3613;stroke-linecap:round;stroke-linejoin:round;paint-order:fill markers stroke"
           d="m 157.21301,219.96301 12.41779,0.17889 c 9.59395,8.33393 10.46413,17.04454 10.38051,25.73785 l -11.88086,-0.35795 -1.82447,-5.37756 -7.84954,-3.42028 4.56792,-6.69894 z"
           sodipodi:nodetypes="cccccccc" /><path
           id="rect1-6-8"
           style="fill:#ffe8e0;fill-opacity:1;stroke-width:4.3613;stroke-linecap:round;stroke-linejoin:round;paint-order:fill markers stroke"
           d="m 170.71227,220.63293 c 7.3335,0.86092 16.06564,-2.096 21.11734,11.06072 2.9453,7.67078 0.98125,11.82125 -0.53693,14.6414 L 180.22584,246.225 c 0.1662,-8.88197 -4.86917,-17.21645 -9.51357,-25.59204 z"
           sodipodi:nodetypes="csccc" /><path
           id="path32"
           style="baseline-shift:baseline;display:inline;overflow:visible;vector-effect:none;fill:#151d23;stroke-width:1.83152;stroke-linejoin:round;paint-order:fill markers stroke;enable-background:accumulate;stop-color:#000000"
           d="m 80.366699,13.493809 c -0.616325,-0.01591 -1.238983,0.0186 -1.866419,0.107882 -5.0195,0.714251 -9.522647,4.598247 -13.21448,11.178634 a 2.9078166,2.9078166 0 0 0 -0.0284,0.04638 C 54.007571,45.794455 42.413157,66.533623 31.978923,88.532963 22.353793,101.12194 13.94979,111.80195 6.9497848,129.00833 c -4.7043673,2.5816 -8.1462182,6.34324 -9.4049808,10.87484 -1.1897502,4.2831 -0.2044342,8.94153 2.19294216,13.30059 -13.39013116,17.7359 -22.99718416,33.02252 -27.79468416,45.69793 -2.465343,6.51365 -3.717677,12.388 -3.498114,17.68178 0.219542,5.29378 2.019259,10.03969 5.469592,13.69336 32.1240861,34.01766 88.637291,48.66733 147.81248,19.19898 5.24644,-2.61268 7.76474,-8.29249 8.97149,-14.58401 1.20676,-6.29151 1.16753,-13.5518 0.6436,-20.51549 -0.94793,-12.59907 -3.32635,-23.05969 -3.81708,-25.17203 3.82924,-3.52105 7.25787,-7.89592 8.66389,-12.76397 0.78683,-2.72416 0.9411,-5.6466 -0.0823,-8.39132 -0.7847,-2.10446 -2.45726,-3.86788 -4.53543,-5.35886 2.91501,-12.42791 2.18204,-24.15169 0.0644,-36.81255 6.67279,-15.3929 9.82842,-35.540413 9.88672,-53.969071 0.0593,-18.739196 -2.65991,-35.489915 -9.72582,-44.077602 -6.61658,-8.041584 -12.5401,-11.291089 -17.94678,-10.538835 -5.40668,0.752258 -8.7877,5.22853 -10.86726,9.654838 L 97.991668,37.54809 C 97.498041,35.452966 97.173163,33.234032 96.582405,31.30146 95.192866,26.755754 93.656897,22.880659 91.624846,20.162567 88.672114,16.212946 84.680973,13.605477 80.366702,13.493809 Z" /><path
           id="rect1-6-6"
           style="fill:#252e33;fill-opacity:1;stroke-width:2.31826;stroke-linecap:round;stroke-linejoin:round;paint-order:fill markers stroke"
           d="M 73.89558,18.941127 C 86.469149,9.9406118 92.657438,24.778492 97.700329,43.892503 L 83.224721,77.35659 C 85.456692,52.715399 87.088176,28.655319 73.89558,18.941127 Z"
           sodipodi:nodetypes="cccc" /><path
           style="fill:none;fill-opacity:1;stroke:#000000;stroke-width:5.81503;stroke-linecap:round;stroke-linejoin:round;stroke-dasharray:none;stroke-opacity:1;paint-order:fill markers stroke"
           d="M 96.936634,46.570647 C 91.576701,60.350501 86.340779,74.190458 76.82468,87.330904 l -9.144246,0.240275"
           id="path1"
           sodipodi:nodetypes="ccc" /><path
           id="rect1-6-33"
           style="fill:#252e33;fill-opacity:1;stroke-width:1.3077;stroke-linecap:round;stroke-linejoin:round;paint-order:fill markers stroke"
           d="m 9.6057337,130.93258 7.9648853,6.46735 C 4.7692563,135.97292 3.2401913,145.51943 0.10502664,151.69394 -1.0565043,145.35008 -3.7955448,135.80616 9.6057337,130.93258 Z"
           sodipodi:nodetypes="cccc" /><path
           id="rect1-6-9"
           style="fill:#e0b7aa;fill-opacity:1;stroke-width:1.84347;stroke-linecap:round;stroke-linejoin:round;paint-order:fill markers stroke"
           d="m 180.71839,239.57351 c 6.94724,-1.81578 9.86048,-5.58784 5.17271,-14.15752 5.37579,1.58761 8.39691,9.66674 5.46995,21.60223 h -10.5354 z"
           sodipodi:nodetypes="ccccc" /><path
           id="rect1-6-3"
           style="fill:#485054;fill-opacity:1;stroke-width:4.3613;stroke-linecap:round;stroke-linejoin:round;paint-order:fill markers stroke"
           d="m 162.85499,220.17513 7.68248,0.29207 9.79204,25.45869 -5.44599,-0.24473 c -2.00385,-8.9887 -5.08989,-19.22428 -12.02853,-25.50603 z"
           sodipodi:nodetypes="ccccc" /><path
           style="baseline-shift:baseline;display:inline;overflow:visible;vector-effect:none;stroke-width:1.83152;stroke-linecap:round;stroke-linejoin:round;paint-order:fill markers stroke;enable-background:accumulate;stop-color:#000000"
           d="m 152.43678,213.36685 c -8.1986,-0.69956 -16.09412,0.68839 -23.68446,1.5346 a 2.9078166,2.9078166 0 0 0 -2.47183,2.08192 l -8.25969,28.55299 a 2.9078166,2.9078166 0 0 0 2.79377,3.71669 h 70.38088 a 2.9078166,2.9078166 0 0 0 2.81524,-2.17492 c 1.26094,-4.83679 2.36812,-12.5769 -0.75479,-19.34178 -1.56146,-3.38244 -4.33883,-6.45807 -8.46001,-8.23109 -4.00006,-1.72092 -9.18678,-2.20213 -15.70738,-1.30566 -3.05365,-1.01674 -6.57489,-1.39907 -9.96957,-0.11791 l -5.11178,-4.08871 a 2.9078166,2.9078166 0 0 0 -1.57038,-0.62601 z m -1.25917,5.80931 5.63047,4.50367 a 2.9078166,2.9078166 0 0 0 3.31605,0.2182 c 2.18583,-1.31834 5.08645,-1.13297 7.81253,-0.0859 a 2.9078166,2.9078166 0 0 0 1.47381,0.1647 c 6.07647,-0.90512 10.26414,-0.34447 13.08528,0.86927 2.82116,1.21372 4.42255,3.02745 5.48381,5.3264 1.81514,3.93195 1.45153,9.2153 0.69039,13.26415 H 124.6815 l 6.64996,-22.97614 c 6.84604,-0.81211 13.47228,-1.71423 19.84615,-1.28423 z"
           id="path15" /><path
           id="rect1-6-30"
           style="fill:#232e3a;fill-opacity:0.404228;stroke-width:4.3613;stroke-linecap:round;stroke-linejoin:round;paint-order:fill markers stroke"
           d="m 124.89222,240.37603 c 17.58463,-2.26047 34.43006,-4.36169 53.23811,-9.06897 l 3.46298,15.14124 h -60.15939 z"
           sodipodi:nodetypes="ccccc" /><text
           xml:space="preserve"
           style="font-weight:bold;font-size:88.77px;line-height:1.1;font-family:'寒蝉圆黑体';-inkscape-font-specification:'寒蝉圆黑体 Bold';letter-spacing:0.554811px;writing-mode:lr-tb;direction:ltr;fill:#3c1eec;fill-opacity:1;stroke-width:2.21645;stroke-linecap:square;stroke-linejoin:round;paint-order:fill markers stroke"
           x="131.4809"
           y="112.02386"
           id="text2"
           transform="rotate(4.8845233)"><tspan
             sodipodi:role="line"
             id="tspan2"
             style="font-size:88.77px;fill:#d7d1fb;fill-opacity:1;stroke-width:2.21645"
             x="131.4809"
             y="112.02386">¡<tspan
   style="font-style:normal;font-variant:normal;font-weight:900;font-stretch:normal;font-size:46.2077px;font-family:'寒蝉圆黑体';-inkscape-font-specification:'寒蝉圆黑体 Heavy';stroke-width:2.21645"
   id="tspan3">_</tspan>¡</tspan></text><path
           id="rect1-6-7"
           style="fill:#252e33;fill-opacity:1;stroke-width:4.3613;stroke-linecap:round;stroke-linejoin:round;paint-order:fill markers stroke"
           d="m 114.61848,19.221008 c 37.90805,7.064121 22.11034,98.952162 13.65156,103.831832 l 1.55826,40.10569 c 5.70334,7.29599 9.32917,14.79302 -6.88472,24.21003 9.10411,25.07456 9.31348,45.22528 -1.68874,59.16957 l -15.51121,6.56867 c 11.40601,-14.99677 14.55097,-44.77187 10.95752,-67.88677 5.62022,-3.41208 14.3193,-13.53173 1.00804,-17.90566 6.32667,-16.1597 4.08384,-39.14725 3.31249,-56.16751 12.18582,-32.572773 9.11656,-83.582865 -14.49807,-85.967761 z"
           sodipodi:nodetypes="ccccccccccc" /><path
           style="fill:none;fill-opacity:1;stroke:#000000;stroke-width:5.81503;stroke-linecap:round;stroke-linejoin:round;stroke-dasharray:none;stroke-opacity:1;paint-order:fill markers stroke"
           d="m 121.29153,109.19514 c 5.32818,6.38826 5.96523,12.21499 7.75512,18.10352"
           id="path2"
           sodipodi:nodetypes="cc" /><path
           style="fill:none;fill-opacity:1;stroke:#000000;stroke-width:5.33047;stroke-linecap:round;stroke-linejoin:round;stroke-dasharray:none;stroke-opacity:1;paint-order:fill markers stroke"
           d="m 10.312495,130.52776 c 0,0 4.159671,1.82321 6.056145,3.68312 1.896475,1.85991 2.430598,5.05797 4.4694,6.35945 2.0388,1.30148 2.785928,-0.37869 6.46135,2.40649 3.675423,2.78519 1.991915,9.02098 5.174932,11.16103 3.183019,2.14004 5.299793,-1.20777 8.626404,0.55236 3.326611,1.76013 4.998544,6.76594 8.420857,8.38903 3.422317,1.62309 6.105182,-0.36653 9.170081,0.95038 3.064902,1.31691 3.054576,5.38865 6.477953,6.31739 3.423376,0.92874 5.415305,-3.22715 9.519355,-3.06052 4.104044,0.16662 8.844258,5.79538 13.143784,5.60704 4.299525,-0.18828 7.393042,-4.35556 11.615487,-4.72631 4.222447,-0.37074 7.766577,4.32912 12.132627,3.35172 4.36606,-0.97742 6.90079,-6.15474 10.08467,-8.03384 3.18389,-1.8791 7.11034,0.56157 7.11034,0.56157"
           id="path3"
           sodipodi:nodetypes="czzzzzzzzzzzzzc" /><path
           style="fill:none;fill-opacity:1;stroke:#000000;stroke-width:5.33047;stroke-linecap:round;stroke-linejoin:round;stroke-dasharray:none;stroke-opacity:1;paint-order:fill markers stroke"
           d="m 3.475378,154.69943 c 0,0 3.9934991,-1.12393 6.4956873,0.47894 2.5021887,1.60287 1.9242647,7.2252 4.6420367,9.13029 2.717771,1.90509 7.140278,-0.56068 10.132629,1.40814 2.992353,1.96881 1.713409,7.60913 5.282726,9.72272 3.569319,2.11359 8.396509,-0.8122 12.317168,0.81172 3.92066,1.62393 5.00798,7.73638 9.144106,9.17088 4.136127,1.43444 8.653392,-2.52308 13.131904,-1.54124 4.478511,0.98186 7.832094,6.68987 12.116195,7.09204 4.284106,0.40216 7.389633,-3.90856 11.387029,-3.83223 3.997399,0.0765 6.130849,4.58777 11.026632,4.42762 4.895779,-0.15991 11.359669,-6.95862 14.742259,-6.98893 3.38259,-0.0305 5.08489,1.93687 8.03552,2.11414 2.95062,0.17716 5.78851,-1.60996 5.78851,-1.60996"
           id="path4"
           sodipodi:nodetypes="czzzzzzzzzzzzc" /><path
           style="fill:none;fill-opacity:1;stroke:#000000;stroke-width:5.81503;stroke-linecap:round;stroke-linejoin:round;stroke-dasharray:none;stroke-opacity:1;paint-order:fill markers stroke"
           d="m 157.11927,220.39792 c 2.49704,3.01694 4.517,5.85391 6.20309,10.69544 0,0 -5.9219,3.58206 -5.52246,5.1594 0.60872,2.40378 6.77497,3.07203 6.77497,3.07203 2.91742,1.98361 3.41808,4.45061 4.38325,6.82466"
           id="path5"
           sodipodi:nodetypes="ccscc" /><path
           style="fill:none;fill-opacity:1;stroke:#000000;stroke-width:5.81503;stroke-linecap:round;stroke-linejoin:round;stroke-dasharray:none;stroke-opacity:1;paint-order:fill markers stroke"
           d="m 169.67334,221.41451 c 8.08578,7.8714 10.48677,15.65686 9.94994,24.55477"
           id="path6"
           sodipodi:nodetypes="cc" /><path
           style="fill:none;fill-opacity:0.441193;stroke:#000000;stroke-width:4.3613;stroke-linecap:round;stroke-linejoin:round;stroke-dasharray:none;stroke-opacity:1;paint-order:fill markers stroke"
           d="m 253.70641,174.51447 c 17.77628,33.71196 -25.16835,64.63197 -42.89424,64.32529"
           id="path25"
           sodipodi:nodetypes="cc" /><path
           id="rect32"
           style="fill:none;stroke:#000000;stroke-width:5.81503;stroke-linejoin:round;stroke-opacity:1;paint-order:fill markers stroke"
           d="M 3.011026,153.56324 C -2.9425333,144.97931 -0.24478569,135.32144 9.3130347,130.82176 16.274026,113.39968 24.591568,102.97794 34.463631,90.060497 44.878184,68.069909 56.506054,47.292637 67.821393,26.202831 74.694471,13.952147 83.360087,13.961943 89.297538,21.903967 c 3.221061,4.308543 6.213781,14.837477 7.726784,24.538539 l 8.588138,-18.279649 c 3.75505,-7.99254 11.29884,-13.868574 23.9403,1.495491 12.02689,14.617117 12.43021,66.026522 -0.86913,95.842252 2.31379,13.50441 3.12774,25.46593 -0.29798,38.39161 10.64807,5.40442 4.04658,17.71119 -4.006,24.41912 0,0 12.153,50.5232 -3.94725,58.54087 C 62.257487,275.82246 7.2753437,261.34852 -23.97035,228.26108 -35.791515,215.74311 -24.788412,190.08253 3.011026,153.56324 Z"
           sodipodi:nodetypes="ccccscsscccssc" /><path
           style="fill:#52637a;fill-opacity:1;stroke:#000000;stroke-width:4.60401;stroke-linecap:round;stroke-linejoin:round;stroke-dasharray:none;stroke-opacity:1;paint-order:normal"
           d="m 318.04153,184.11675 0.14653,129.22978 -62.74192,-52.15398 z"
           id="path16"
           sodipodi:nodetypes="cccc" /><g
           id="g1"
           transform="matrix(1.5941201,1.841905,-1.841905,1.5941201,193.57377,-57.229156)"><path
             style="fill:none;stroke:#000000;stroke-width:2.11667;stroke-linecap:round;stroke-linejoin:round;stroke-dasharray:none;stroke-opacity:0.996078;paint-order:markers stroke fill"
             d="m 43.630753,9.4992854 c 0,0 -2.136764,0.4054259 -2.782095,0.9072416 -0.645331,0.501816 -0.423808,1.168453 -1.057941,1.671997 -0.634132,0.503544 -1.872487,0.37005 -2.71922,0.948378 -0.846733,0.578328 -1.714505,2.298261 -1.714505,2.298261"
             id="path35"
             sodipodi:nodetypes="czzzc" /><path
             style="fill:none;stroke:#000000;stroke-width:2.11667;stroke-linecap:round;stroke-linejoin:round;stroke-dasharray:none;stroke-opacity:0.996078;paint-order:markers stroke fill"
             d="m 32.617444,17.289554 -0.245653,0.337385"
             id="path36"
             sodipodi:nodetypes="cc" /></g><g
           id="g22"
           transform="matrix(2.2259425,0,0,2.2259425,-271.12559,-153.13693)"><path
             style="fill:none;stroke:#000000;stroke-width:2.11667;stroke-linecap:round;stroke-linejoin:round;stroke-dasharray:none;stroke-opacity:0.996078;paint-order:markers stroke fill"
             d="m 250.57185,136.78958 c 0,0 -0.2008,1.55074 -0.72378,2.18402 -0.52298,0.63328 -1.51473,0.64042 -1.9939,1.19996 -0.47917,0.55953 -0.21344,1.46776 -0.79051,1.93786 -0.57708,0.4701 -2.24717,0.47648 -2.24717,0.47648"
             id="path32-8"
             sodipodi:nodetypes="czzzc" /><path
             style="fill:none;stroke:#000000;stroke-width:2.11667;stroke-linecap:round;stroke-linejoin:round;stroke-dasharray:none;stroke-opacity:0.996078;paint-order:markers stroke fill"
             d="m 242.53227,143.81214 -0.17394,0.18629"
             id="path40-4"
             sodipodi:nodetypes="cc" /></g></g><g
         id="g1-6"
         transform="matrix(-1.7937763,-1.4703342,1.4703342,-1.7937763,28.429748,351.96577)"><path
           style="baseline-shift:baseline;display:inline;overflow:visible;fill:#bde3f6;fill-opacity:1;stroke:#ffffff;stroke-width:1.5875;stroke-linecap:round;stroke-linejoin:round;stroke-dasharray:none;stroke-opacity:1;paint-order:stroke markers fill;enable-background:accumulate;stop-color:#000000"
           d="m 73.515731,89.72828 c -0.703318,-0.198632 -1.434457,0.210666 -1.632812,0.914063 -0.109968,0.389377 -0.0336,0.78728 0.17584,1.098583 0,0 -0.905057,1.813414 -0.939116,1.848134 -0.495928,-0.0081 -0.975864,0.26439 -1.209384,0.738829 -0.323046,0.6553 -0.05372,1.448407 0.601562,1.771485 l 2.585938,1.271484 c 0.02501,0.01252 0.05042,0.02425 0.07617,0.03516 2.176632,0.906094 4.353415,-0.225922 5.107422,-1.892578 0.377004,-0.833328 0.474753,-1.805057 0.169922,-2.734375 -0.30483,-0.929317 -1.051452,-1.772203 -2.09375,-2.236328 -0.05763,-0.02569 -0.117028,-0.04723 -0.177734,-0.06445 z"
           id="path26-7-3-9"
           sodipodi:nodetypes="ccccccccssccc" /><path
           style="baseline-shift:baseline;display:inline;overflow:visible;fill:#bde3f6;fill-opacity:1;stroke:#ffffff;stroke-width:1.5875;stroke-linecap:round;stroke-linejoin:round;stroke-dasharray:none;stroke-opacity:1;paint-order:stroke markers fill;enable-background:accumulate;stop-color:#000000"
           d="m 76.315674,79.587513 c -0.06382,0.0058 -0.127142,0.01626 -0.189453,0.03125 l -2.69336,0.634765 c -0.711562,0.167496 -1.1524,0.88036 -0.984375,1.591797 0.06968,0.294112 0.232535,0.541826 0.449891,0.719267 0,0 0.312733,2.780286 0.320528,2.78231 -0.139504,0.222183 -0.214483,0.487972 -0.200106,0.769908 0.03717,0.729751 0.658926,1.291172 1.388672,1.253906 l 2.861328,-0.144531 c 0.0091,-5.72e-4 0.01823,-0.0012 0.02734,-0.002 1.110736,-0.07955 2.070636,-0.708914 2.583984,-1.519531 0.513348,-0.810617 0.661988,-1.745158 0.554687,-2.640625 -0.1073,-0.895467 -0.479708,-1.787704 -1.185546,-2.474609 -0.705838,-0.686906 -1.779425,-1.102906 -2.933594,-1.001953 z"
           id="path26-7-4"
           sodipodi:nodetypes="ccccccccccssscc" /><path
           style="baseline-shift:baseline;display:inline;overflow:visible;fill:#bce2f5;fill-opacity:1;stroke:#ffffff;stroke-width:1.5875;stroke-linecap:round;stroke-linejoin:round;stroke-dasharray:none;stroke-opacity:1;paint-order:stroke markers fill;enable-background:accumulate;stop-color:#000000"
           d="m 72.923729,70.412988 c -0.484117,0.05677 -0.977915,0.205768 -1.458985,0.462891 -0.05575,0.02998 -0.109269,0.06392 -0.160156,0.101562 l -2.228516,1.642578 c -0.587771,0.433697 -0.712802,1.261697 -0.279297,1.84961 0.171579,0.232533 0.404871,0.39264 0.660596,0.474391 0.289028,0.0924 1.349024,1.277327 1.319647,1.496118 -0.03529,0.262811 0.0079,0.538738 0.140819,0.79125 0.340235,0.646777 1.140453,0.895151 1.78711,0.554688 l 2.216796,-1.166016 c 0.923025,-0.474803 1.580684,-1.267432 1.81836,-2.138672 0.237676,-0.87124 0.07799,-1.766565 -0.353516,-2.490234 -0.647253,-1.085503 -2.010541,-1.748422 -3.46289,-1.578125 z"
           id="path26-3"
           sodipodi:nodetypes="ccccccccccsscc" /><path
           style="fill:#83c2e0;fill-opacity:1;stroke:none;stroke-width:2.25592;stroke-linecap:round;stroke-linejoin:round;stroke-dasharray:none;stroke-opacity:1;paint-order:stroke markers fill"
           id="path43"
           sodipodi:type="arc"
           sodipodi:cx="74.033974"
           sodipodi:cy="73.334343"
           sodipodi:rx="1.4054922"
           sodipodi:ry="1.4054922"
           sodipodi:start="1.0970616"
           sodipodi:end="1.0910362"
           sodipodi:arc-type="slice"
           d="m 74.675177,74.585049 a 1.4054922,1.4054922 0 0 1 -1.890942,-0.607619 1.4054922,1.4054922 0 0 1 0.60477,-1.891856 1.4054922,1.4054922 0 0 1 1.892765,0.60192 1.4054922,1.4054922 0 0 1 -0.599068,1.893669 l -0.648728,-1.24682 z" /><path
           style="fill:none;fill-opacity:0.418845;stroke:#000000;stroke-width:2.64583;stroke-linecap:round;stroke-linejoin:round;stroke-dasharray:none;stroke-opacity:1;paint-order:fill markers stroke"
           d="m 69.862413,73.683174 2.227974,-1.641666 c 2.869613,-1.533753 4.81731,2.068635 2.227971,3.400591 l -2.227973,1.172617"
           id="path26"
           sodipodi:nodetypes="cccc" /><path
           style="fill:#82c1df;fill-opacity:1;stroke:none;stroke-width:2.25592;stroke-linecap:round;stroke-linejoin:round;stroke-dasharray:none;stroke-opacity:1;paint-order:stroke markers fill"
           id="path43-4"
           sodipodi:type="arc"
           sodipodi:cx="75.611427"
           sodipodi:cy="94.483963"
           sodipodi:rx="1.4054922"
           sodipodi:ry="1.4054922"
           sodipodi:start="1.0970616"
           sodipodi:end="1.0910362"
           sodipodi:arc-type="slice"
           d="m 76.252631,95.734669 a 1.4054922,1.4054922 0 0 1 -1.890943,-0.607619 1.4054922,1.4054922 0 0 1 0.604771,-1.891856 1.4054922,1.4054922 0 0 1 1.892764,0.60192 1.4054922,1.4054922 0 0 1 -0.599068,1.893669 l -0.648728,-1.24682 z" /><path
           style="fill:none;fill-opacity:0.418845;stroke:#000000;stroke-width:2.64583;stroke-linecap:round;stroke-linejoin:round;stroke-dasharray:none;stroke-opacity:1;paint-order:fill markers stroke"
           d="m 73.158091,91.001899 2.663677,0.750844 c 2.972406,1.323584 1.089997,5.77618 -2.13736,4.432688 l -2.586576,-1.273325"
           id="path26-7-3"
           sodipodi:nodetypes="cccc" /><path
           style="fill:#82c1df;fill-opacity:1;stroke:none;stroke-width:2.25592;stroke-linecap:round;stroke-linejoin:round;stroke-dasharray:none;stroke-opacity:1;paint-order:stroke markers fill"
           id="path43-8"
           sodipodi:type="arc"
           sodipodi:cx="77.39521"
           sodipodi:cy="83.536469"
           sodipodi:rx="1.4054922"
           sodipodi:ry="1.4054922"
           sodipodi:start="1.0970616"
           sodipodi:end="1.0910362"
           sodipodi:arc-type="slice"
           d="m 78.036414,84.787175 a 1.4054922,1.4054922 0 0 1 -1.890943,-0.60762 1.4054922,1.4054922 0 0 1 0.604771,-1.891855 1.4054922,1.4054922 0 0 1 1.892764,0.601919 1.4054922,1.4054922 0 0 1 -0.599068,1.89367 l -0.648728,-1.24682 z" /><path
           style="fill:none;fill-opacity:0.418845;stroke:#000000;stroke-width:2.64583;stroke-linecap:round;stroke-linejoin:round;stroke-dasharray:none;stroke-opacity:1;paint-order:fill markers stroke"
           d="m 73.736583,81.540135 2.6937,-0.634756 c 3.241403,-0.283519 3.67645,4.791078 0.772055,4.999087 l -2.861272,0.144764"
           id="path26-7"
           sodipodi:nodetypes="cccc" /></g></g><text
       xml:space="preserve"
       style="font-style:normal;font-variant:normal;font-weight:900;font-stretch:normal;font-size:14.1111px;line-height:1.1;font-family:'寒蝉圆黑体';-inkscape-font-specification:'寒蝉圆黑体 Heavy';letter-spacing:0px;writing-mode:lr-tb;direction:ltr;opacity:1;fill:#151d23;fill-opacity:1;stroke:none;stroke-width:4.99999;stroke-linecap:square;stroke-linejoin:round;stroke-dasharray:none;stroke-opacity:1;paint-order:fill markers stroke"
       x="332.00769"
       y="164.19751"
       id="text27"><tspan
         sodipodi:role="line"
         id="tspan27"
         style="font-style:normal;font-variant:normal;font-weight:bold;font-stretch:normal;font-size:14.1111px;font-family:'寒蝉圆黑体';-inkscape-font-specification:'寒蝉圆黑体 Bold';letter-spacing:0px;fill:#151d23;fill-opacity:1;stroke-width:5"
         x="332.00769"
         y="164.19751">这次是 linux-kernel-6<tspan
   style="letter-spacing:-2.64583px"
   id="tspan29">.</tspan>18<tspan
   style="letter-spacing:-2.64583px"
   id="tspan28">.</tspan>12</tspan></text></g></svg>
